<svg xmlns="http://www.w3.org/2000/svg" xmlns:svg="http://www.w3.org/2000/svg" id="svg2" width="86" height="86" x="0" y="0" enable-background="new 0 0 86 86" version="1.1" viewBox="0 0 86 86" xml:space="preserve"><metadata id="metadata27"/><defs id="defs25"><filter id="filter3812"><feGaussianBlur id="feGaussianBlur3814" stdDeviation="1.093"/></filter></defs><g id="Layer_1"><linearGradient id="SVGID_1_" x1=".717" x2="85.283" y1="85.283" y2=".717" gradientTransform="translate(0.36440678,-0.17006803)" gradientUnits="userSpaceOnUse"><stop style="stop-color:#5642c0;stop-opacity:1" id="stop7" offset="0"/><stop style="stop-color:#ffb4f7;stop-opacity:1" id="stop9" offset="1"/></linearGradient><path id="path11" d="m 84.641407,0.12993197 h -41.277 c -23.583,0 -42.70000022,19.11800003 -42.70000022,42.70000003 v 41.277 c 0,0.786 0.63700002,1.423 1.42300002,1.423 H 43.364407 c 23.583,0 42.7,-19.118 42.7,-42.7 v -41.277 c 0,-0.78600003 -0.637,-1.42300003 -1.423,-1.42300003 z" style="fill:url(#SVGID_1_)"/><path style="fill:none;stroke:#000;stroke-width:2.9;stroke-linecap:butt;stroke-linejoin:miter;stroke-opacity:1;filter:url(#filter3812);stroke-miterlimit:4;stroke-dasharray:none" id="path3772" d="m 35.89407,36.987289 c 1.014027,1.443392 -1.445379,2.079007 -2.399013,1.68538 -2.584289,-1.066705 -2.414799,-4.58597 -0.971747,-6.483404 2.581282,-3.394066 7.667796,-2.95579 10.567797,-0.258115 4.255868,3.958948 3.520956,10.794371 -0.455518,14.652189 -5.300016,5.141865 -13.937217,4.096912 -18.736582,-1.169151 -6.03951,-6.626802 -4.678546,-17.087912 1.882784,-22.820973 7.946651,-6.943506 20.243047,-5.26349 26.905366,2.596416 7.851312,9.262628 5.850512,23.400952 -3.31005,30.989758 C 38.800877,64.940966 22.816401,62.61831 14.302958,52.155707 4.6294423,40.267432 7.2746574,22.433947 19.040272,12.997165 32.239514,2.4105211 51.924031,5.3787829 62.283207,18.448112 c 11.500648,14.509434 8.208989,36.04647 -6.164581,47.327327" transform="translate(4.3644068,5.1011184)"/></g></svg>